# xmcd
#
# Track frame offsets: 
#        150
#        19732
#        42510
#        69321
#        88581
#        111635
#        136393
#        160161
#        181889
#        199273
#
# Disc length: 2966 seconds
#
# Revision: 2
# Processed by: cddbd v1.5.2PL0 Copyright (c) Steve Scherf et al.
# Submitted via: ExactAudioCopy v0.99pb5
#
DISCID=8a0b940a
DTITLE=Maysa - Feel The Fire
DYEAR=2007
DGENRE=Shanacie Records
TTITLE0=I Can't Help It
TTITLE1=You Are My Starship
TTITLE2=Happy Feeling
TTITLE3=I Don't Want To Lose Your Love
TTITLE4=Feel The Fire
TTITLE5=Zoom
TTITLE6=Send For Me
TTITLE7=I'm In Love
TTITLE8=This Time I'll Be Sweeter
TTITLE9=Ain't No Sunshine
EXTD=YEAR: 2007
EXTT0=
EXTT1=
EXTT2=
EXTT3=
EXTT4=
EXTT5=
EXTT6=
EXTT7=
EXTT8=
EXTT9=
PLAYORDER=
